<svg xmlns="http://www.w3.org/2000/svg" xmlns:xlink="http://www.w3.org/1999/xlink" width="500" zoomAndPan="magnify" viewBox="0 0 375 374.999991" height="500" preserveAspectRatio="xMidYMid meet" version="1.0"><defs><clipPath id="3367032ea6"><path d="M 80 11.488281 L 208 11.488281 L 208 234 L 80 234 Z M 80 11.488281 " clip-rule="nonzero"/></clipPath><clipPath id="e628da9b0b"><path d="M 145 291 L 185 291 L 185 363.238281 L 145 363.238281 Z M 145 291 " clip-rule="nonzero"/></clipPath></defs><g clip-path="url(#3367032ea6)"><path fill="#004aad" d="M 90.945312 11.488281 C 83.578125 11.488281 79.175781 17.285156 81.152344 24.378906 L 137.960938 227.679688 C 139.945312 234.777344 143.300781 234.816406 145.417969 227.765625 L 206.761719 24.304688 C 208.886719 17.261719 204.605469 11.488281 197.242188 11.488281 L 158.945312 11.488281 C 151.578125 11.488281 139.53125 11.488281 132.167969 11.488281 Z M 90.945312 11.488281 " fill-opacity="1" fill-rule="nonzero"/></g><path fill="#004aad" d="M 222.367188 67.402344 C 217.410156 64.277344 211.980469 66.304688 210.289062 71.925781 L 161.917969 233.023438 C 160.230469 238.644531 162.480469 240.097656 166.917969 236.25 L 294.898438 125.382812 C 299.335938 121.542969 298.898438 115.824219 293.953125 112.703125 L 268.152344 96.378906 C 263.195312 93.246094 255.085938 88.105469 250.128906 84.96875 Z M 222.367188 67.402344 " fill-opacity="1" fill-rule="nonzero"/><path fill="#004aad" d="M 282.8125 170.699219 C 280.960938 166.566406 276.609375 165.5625 273.117188 168.460938 L 173.3125 251.464844 C 169.824219 254.351562 170.65625 256.25 175.144531 255.671875 L 304.753906 238.917969 C 309.246094 238.335938 311.40625 234.488281 309.558594 230.359375 L 299.921875 208.859375 C 298.066406 204.738281 295.039062 197.96875 293.1875 193.839844 Z M 282.8125 170.699219 " fill-opacity="1" fill-rule="nonzero"/><path fill="#004aad" d="M 280.667969 263.332031 C 281.203125 259.820312 278.75 257.300781 275.226562 257.726562 L 173.988281 269.886719 C 170.464844 270.3125 170.1875 271.914062 173.410156 273.449219 L 266.03125 317.695312 C 269.242188 319.230469 272.296875 317.597656 272.851562 314.09375 L 275.664062 295.804688 C 276.207031 292.296875 277.09375 286.542969 277.636719 283.023438 Z M 280.667969 263.332031 " fill-opacity="1" fill-rule="nonzero"/><path fill="#004aad" d="M 239.515625 324.136719 C 241.445312 322.019531 240.929688 319.222656 238.367188 317.933594 L 164.789062 280.878906 C 162.21875 279.582031 161.335938 280.550781 162.796875 283.023438 L 205.378906 354.195312 C 206.851562 356.65625 209.644531 356.941406 211.578125 354.816406 L 221.640625 343.746094 C 223.574219 341.632812 226.742188 338.152344 228.671875 336.03125 Z M 239.515625 324.136719 " fill-opacity="1" fill-rule="nonzero"/><g clip-path="url(#e628da9b0b)"><path fill="#004aad" d="M 182.085938 356.136719 C 184.34375 355.667969 185.320312 353.597656 184.246094 351.546875 L 153.605469 292.660156 C 152.53125 290.609375 151.503906 290.804688 151.296875 293.117188 L 145.609375 359.703125 C 145.410156 362.011719 147.097656 363.507812 149.359375 363.035156 L 161.152344 360.546875 C 163.417969 360.070312 167.125 359.296875 169.382812 358.816406 Z M 182.085938 356.136719 " fill-opacity="1" fill-rule="nonzero"/></g><path fill="#004aad" d="M 132.941406 353.320312 C 134.871094 353.898438 136.484375 352.722656 136.515625 350.714844 L 137.605469 292.957031 C 137.648438 290.9375 136.769531 290.667969 135.65625 292.335938 L 103.582031 340.859375 C 102.472656 342.535156 103.144531 344.382812 105.070312 344.964844 L 115.109375 347.980469 C 117.042969 348.550781 120.203125 349.496094 122.128906 350.085938 Z M 132.941406 353.320312 " fill-opacity="1" fill-rule="nonzero"/><path fill="#004aad" d="M 94.222656 314.535156 C 95.039062 315.898438 96.597656 316.070312 97.6875 314.925781 L 129.15625 282.023438 C 130.253906 280.871094 129.886719 280.25 128.347656 280.628906 L 83.855469 291.628906 C 82.324219 292.011719 81.71875 293.4375 82.527344 294.800781 L 86.746094 301.910156 C 87.550781 303.273438 88.871094 305.507812 89.6875 306.875 Z M 94.222656 314.535156 " fill-opacity="1" fill-rule="nonzero"/><path fill="#004aad" d="M 89.617188 266.480469 C 89.410156 267.679688 90.230469 268.546875 91.429688 268.429688 L 125.871094 264.90625 C 127.078125 264.785156 127.175781 264.230469 126.101562 263.695312 L 94.910156 248.113281 C 93.828125 247.578125 92.773438 248.113281 92.578125 249.304688 L 91.511719 255.484375 C 91.304688 256.675781 90.964844 258.625 90.761719 259.820312 Z M 89.617188 266.480469 " fill-opacity="1" fill-rule="nonzero"/><path fill="#004aad" d="M 100.28125 236.226562 C 99.804688 237.085938 100.1875 237.96875 101.140625 238.199219 L 128.445312 244.761719 C 129.394531 244.980469 129.613281 244.589844 128.9375 243.890625 L 109.265625 223.585938 C 108.585938 222.886719 107.628906 223.015625 107.152344 223.859375 L 104.675781 228.328125 C 104.207031 229.179688 103.421875 230.585938 102.941406 231.433594 Z M 100.28125 236.226562 " fill-opacity="1" fill-rule="nonzero"/></svg>